<svg xmlns="http://www.w3.org/2000/svg" width="1200" height="520" viewBox="0 0 1200 520">
<rect width="1200" height="520" fill="#f7fbfc"/>
<text x="60" y="70" font-family="Arial" font-size="34" font-weight="700" fill="#0F4C5C">TAYLKOMB Corrected Docking Architecture</text>
<rect x="60" y="130" rx="18" ry="18" width="320" height="240" fill="#0F4C5C"/>
<text x="220" y="180" text-anchor="middle" font-family="Arial" font-size="28" font-weight="700" fill="white">TC-001 Main Comb</text>
<text x="220" y="220" text-anchor="middle" font-family="Arial" font-size="22" fill="white">Only Male Connector</text>
<text x="220" y="255" text-anchor="middle" font-family="Arial" font-size="20" fill="#d7eef2">Passive tang + detent notch</text>
<text x="220" y="288" text-anchor="middle" font-family="Arial" font-size="20" fill="#d7eef2">Optional magnet pockets</text>
<text x="220" y="321" text-anchor="middle" font-family="Arial" font-size="20" fill="#d7eef2">No moving lock parts</text>

<line x1="380" y1="250" x2="520" y2="250" stroke="#0F4C5C" stroke-width="8"/>
<polygon points="520,250 495,235 495,265" fill="#0F4C5C"/>
<text x="440" y="220" text-anchor="middle" font-family="Arial" font-size="22" font-weight="700" fill="#0F4C5C">Slides into</text>

<rect x="560" y="90" rx="14" ry="14" width="560" height="330" fill="#E8F3F5" stroke="#7AA5AD" stroke-width="3"/>
<text x="840" y="135" text-anchor="middle" font-family="Arial" font-size="28" font-weight="700" fill="#0F4C5C">Five Shared Receiver Attachments</text>

<g font-family="Arial" font-size="22" fill="#17353a">
<text x="610" y="185">• TC-002 Narrow Comb</text>
<text x="610" y="225">• TC-003 Wide Comb</text>
<text x="610" y="265">• TH-001 Double Handle</text>
<text x="610" y="305">• TH-002 Flat Handle</text>
<text x="610" y="345">• TH-003 Round Handle</text>
</g>

<g font-family="Arial" font-size="18" fill="#17353a">
<text x="860" y="190">Shared female socket</text>
<text x="860" y="225">Ball + spring + button lock</text>
<text x="860" y="260">Common internal receiver core</text>
<text x="860" y="295">Optional secondary magnets</text>
<text x="860" y="330">Unique outer body only</text>
</g>

<rect x="60" y="420" rx="10" ry="10" width="1060" height="60" fill="#D8EFF2"/>
<text x="590" y="458" text-anchor="middle" font-family="Arial" font-size="22" font-weight="700" fill="#0F4C5C">Investor line: one core comb, five interchangeable attachments, one universal docking standard.</text>
</svg>